<svg width="18" height="18" viewBox="0 0 18 18" fill="none" xmlns="http://www.w3.org/2000/svg">
<g clip-path="url(#clip0_1_2673)">
<path d="M14.7263 11.8651L12.8881 11.6552C12.4467 11.6046 12.0125 11.7566 11.7013 12.0677L10.3697 13.3993C8.3217 12.3572 6.64276 10.6855 5.60067 8.63025L6.93947 7.29144C7.25065 6.98025 7.40263 6.54605 7.35197 6.1046L7.1421 4.28092C7.05526 3.55 6.44013 3 5.70198 3H4.45002C3.63226 3 2.952 3.68026 3.00266 4.49802C3.38621 10.6783 8.32894 15.6138 14.5019 15.9973C15.3197 16.048 15.9999 15.3677 15.9999 14.55V13.298C16.0072 12.5671 15.4572 11.952 14.7263 11.8651Z" fill="#212121"/>
</g>
<defs>
<clipPath id="clip0_1_2673">
<rect width="18" height="18" fill="white"/>
</clipPath>
</defs>
</svg>
